<?xml version="1.0" standalone="no"?>
<!DOCTYPE svg PUBLIC "-//W3C//DTD SVG 20010904//EN"
 "http://www.w3.org/TR/2001/REC-SVG-20010904/DTD/svg10.dtd">
<svg version="1.0" xmlns="http://www.w3.org/2000/svg"
 width="632.000000pt" height="632.000000pt" viewBox="0 0 632.000000 632.000000"
 preserveAspectRatio="xMidYMid meet">
<metadata>
Created by potrace 1.11, written by Peter Selinger 2001-2013
</metadata>
<g transform="translate(0.000000,632.000000) scale(0.100000,-0.100000)"
fill="#000000" stroke="none">
<path d="M3022 5641 c376 -390 791 -971 1183 -1656 371 -648 725 -1384 1001
-2080 37 -93 70 -173 74 -178 3 -4 232 595 508 1330 275 735 500 1338 499
1339 -2 2 -3314 1339 -3356 1355 -14 6 23 -39 91 -110z"/>
<path d="M641 3472 c-468 -1248 -600 -1609 -589 -1615 20 -13 2873 -1164 2876
-1162 2 2 -35 70 -81 151 -394 697 -805 1548 -1053 2181 -294 753 -495 1494
-531 1965 -3 43 -9 81 -13 83 -4 2 -278 -719 -609 -1603z"/>
<path d="M2426 4960 c-130 -23 -257 -127 -321 -262 -175 -369 -90 -1071 235
-1943 187 -500 459 -1074 770 -1620 97 -170 319 -532 393 -639 l33 -50 550
-222 c302 -122 552 -219 555 -215 4 3 102 261 219 574 199 531 212 569 196
586 -9 9 -16 22 -16 29 0 6 -20 75 -45 154 -203 655 -632 1601 -1018 2243
-252 421 -489 730 -753 985 -299 288 -576 420 -798 380z"/>
</g>
</svg>
