<svg width="21" height="31" viewBox="0 0 21 31" fill="none" xmlns="http://www.w3.org/2000/svg">
<path fill-rule="evenodd" clip-rule="evenodd" d="M10.5 0.916656C4.85621 0.916656 0.291626 5.48124 0.291626 11.125C0.291626 18.7812 10.5 30.0833 10.5 30.0833C10.5 30.0833 20.7083 18.7812 20.7083 11.125C20.7083 5.48124 16.1437 0.916656 10.5 0.916656ZM3.20827 11.125C3.20827 7.09999 6.47493 3.83332 10.4999 3.83332C14.5249 3.83332 17.7916 7.09999 17.7916 11.125C17.7916 15.325 13.5916 21.6104 10.4999 25.5333C7.4666 21.6396 3.20827 15.2812 3.20827 11.125ZM6.85413 11.125C6.85413 9.11145 8.48642 7.47916 10.5 7.47916C11.8025 7.47916 13.0061 8.17405 13.6573 9.30207C14.3086 10.4301 14.3086 11.8199 13.6573 12.9479C13.0061 14.0759 11.8025 14.7708 10.5 14.7708C8.48642 14.7708 6.85413 13.1385 6.85413 11.125Z" fill="url(#paint0_linear)"/>
<defs>
<linearGradient id="paint0_linear" x1="10.5" y1="0.916656" x2="10.5" y2="30.0833" gradientUnits="userSpaceOnUse">
<stop stop-color="#0476D0"/>
<stop offset="1" stop-color="#047DD9" stop-opacity="0.62"/>
</linearGradient>
</defs>
</svg>